<mxfile host="app.diagrams.net" modified="2024-05-02T08:44:08.053Z" agent="Mozilla/5.0 (Windows NT 10.0; Win64; x64; rv:125.0) Gecko/20100101 Firefox/125.0" etag="oFrci_9SBbMeBQljwZ9R" version="24.3.0" type="device">
  <diagram name="Page-1" id="WYrKMt7KFvat2ohx55Yr">
    <mxGraphModel dx="1674" dy="754" grid="1" gridSize="10" guides="1" tooltips="1" connect="1" arrows="1" fold="1" page="1" pageScale="1" pageWidth="827" pageHeight="1169" math="0" shadow="0">
      <root>
        <mxCell id="0" />
        <mxCell id="1" parent="0" />
        <mxCell id="Ox41XbjKJ6TnmUenTi1--1" value="&lt;b&gt;User&lt;/b&gt;" style="shape=umlActor;verticalLabelPosition=bottom;verticalAlign=top;html=1;outlineConnect=0;" parent="1" vertex="1">
          <mxGeometry x="60" y="210" width="30" height="60" as="geometry" />
        </mxCell>
        <mxCell id="Ox41XbjKJ6TnmUenTi1--4" value="" style="endArrow=classic;html=1;rounded=0;" parent="1" source="Ox41XbjKJ6TnmUenTi1--1" edge="1">
          <mxGeometry width="50" height="50" relative="1" as="geometry">
            <mxPoint x="150" y="260" as="sourcePoint" />
            <mxPoint x="240" y="160" as="targetPoint" />
          </mxGeometry>
        </mxCell>
        <mxCell id="Ox41XbjKJ6TnmUenTi1--5" value="" style="ellipse;whiteSpace=wrap;html=1;fillColor=#99CCFF;" parent="1" vertex="1">
          <mxGeometry x="240" y="90" width="180" height="100" as="geometry" />
        </mxCell>
        <mxCell id="Ox41XbjKJ6TnmUenTi1--6" value="&lt;font style=&quot;font-size: 14px;&quot;&gt;Se deconnecter&lt;/font&gt;" style="text;html=1;align=center;verticalAlign=middle;whiteSpace=wrap;rounded=0;" parent="1" vertex="1">
          <mxGeometry x="285" y="125" width="105" height="30" as="geometry" />
        </mxCell>
        <mxCell id="Ox41XbjKJ6TnmUenTi1--8" value="" style="endArrow=classic;html=1;rounded=0;" parent="1" source="Ox41XbjKJ6TnmUenTi1--1" edge="1">
          <mxGeometry width="50" height="50" relative="1" as="geometry">
            <mxPoint x="90" y="230" as="sourcePoint" />
            <mxPoint x="240" y="280" as="targetPoint" />
          </mxGeometry>
        </mxCell>
        <mxCell id="Ox41XbjKJ6TnmUenTi1--9" value="&lt;font style=&quot;font-size: 14px;&quot;&gt;Affichage du panier&lt;/font&gt;" style="ellipse;whiteSpace=wrap;html=1;fillColor=#FFFF66;" parent="1" vertex="1">
          <mxGeometry x="240" y="230" width="180" height="100" as="geometry" />
        </mxCell>
        <mxCell id="Ox41XbjKJ6TnmUenTi1--10" value="&lt;font style=&quot;font-size: 14px;&quot;&gt;Suppression d&#39;une session du panier&lt;/font&gt;" style="ellipse;whiteSpace=wrap;html=1;fillColor=#FFFF66;" parent="1" vertex="1">
          <mxGeometry x="550" y="80" width="180" height="100" as="geometry" />
        </mxCell>
        <mxCell id="Ox41XbjKJ6TnmUenTi1--11" value="" style="endArrow=classic;html=1;rounded=0;entryX=0;entryY=0.5;entryDx=0;entryDy=0;exitX=1;exitY=0.5;exitDx=0;exitDy=0;" parent="1" source="Ox41XbjKJ6TnmUenTi1--9" target="Ox41XbjKJ6TnmUenTi1--10" edge="1">
          <mxGeometry width="50" height="50" relative="1" as="geometry">
            <mxPoint x="330" y="270" as="sourcePoint" />
            <mxPoint x="480" y="306" as="targetPoint" />
          </mxGeometry>
        </mxCell>
        <mxCell id="Ox41XbjKJ6TnmUenTi1--12" value="" style="endArrow=classic;html=1;rounded=0;" parent="1" source="Ox41XbjKJ6TnmUenTi1--1" target="Ox41XbjKJ6TnmUenTi1--13" edge="1">
          <mxGeometry width="50" height="50" relative="1" as="geometry">
            <mxPoint x="90" y="270" as="sourcePoint" />
            <mxPoint x="240" y="410" as="targetPoint" />
          </mxGeometry>
        </mxCell>
        <mxCell id="Ox41XbjKJ6TnmUenTi1--13" value="&lt;font style=&quot;font-size: 14px;&quot;&gt;Affichage des Ville / Cinema&lt;br&gt;&lt;/font&gt;" style="ellipse;whiteSpace=wrap;html=1;fillColor=#97D077;" parent="1" vertex="1">
          <mxGeometry x="240" y="350" width="180" height="100" as="geometry" />
        </mxCell>
        <mxCell id="Ox41XbjKJ6TnmUenTi1--15" value="&lt;font style=&quot;font-size: 14px;&quot;&gt;Recherche des cinémas par mot clé&lt;/font&gt;" style="ellipse;whiteSpace=wrap;html=1;fillColor=#97D077;" parent="1" vertex="1">
          <mxGeometry x="480" y="350" width="180" height="100" as="geometry" />
        </mxCell>
        <mxCell id="Ox41XbjKJ6TnmUenTi1--17" value="" style="endArrow=classic;html=1;rounded=0;entryX=0;entryY=0.5;entryDx=0;entryDy=0;exitX=1;exitY=0.5;exitDx=0;exitDy=0;" parent="1" source="Ox41XbjKJ6TnmUenTi1--13" target="Ox41XbjKJ6TnmUenTi1--15" edge="1">
          <mxGeometry width="50" height="50" relative="1" as="geometry">
            <mxPoint x="430" y="419.5" as="sourcePoint" />
            <mxPoint x="490" y="419.5" as="targetPoint" />
          </mxGeometry>
        </mxCell>
        <mxCell id="Ox41XbjKJ6TnmUenTi1--18" value="" style="endArrow=classic;html=1;rounded=0;entryX=0;entryY=0;entryDx=0;entryDy=0;" parent="1" source="Ox41XbjKJ6TnmUenTi1--1" target="Ox41XbjKJ6TnmUenTi1--19" edge="1">
          <mxGeometry width="50" height="50" relative="1" as="geometry">
            <mxPoint x="60" y="342.5" as="sourcePoint" />
            <mxPoint x="240" y="540" as="targetPoint" />
          </mxGeometry>
        </mxCell>
        <mxCell id="Ox41XbjKJ6TnmUenTi1--19" value="&lt;font style=&quot;font-size: 14px;&quot;&gt;Affichage des films&lt;/font&gt;" style="ellipse;whiteSpace=wrap;html=1;fillColor=#FF3333;" parent="1" vertex="1">
          <mxGeometry x="240" y="470" width="180" height="100" as="geometry" />
        </mxCell>
        <mxCell id="Ox41XbjKJ6TnmUenTi1--20" value="&lt;font style=&quot;font-size: 14px;&quot;&gt;Recherche des films par mot clé&lt;/font&gt;" style="ellipse;whiteSpace=wrap;html=1;fillColor=#FF3333;" parent="1" vertex="1">
          <mxGeometry x="480" y="470" width="180" height="100" as="geometry" />
        </mxCell>
        <mxCell id="Ox41XbjKJ6TnmUenTi1--21" value="" style="endArrow=classic;html=1;rounded=0;entryX=0;entryY=0.5;entryDx=0;entryDy=0;exitX=1;exitY=0.5;exitDx=0;exitDy=0;" parent="1" source="Ox41XbjKJ6TnmUenTi1--19" target="Ox41XbjKJ6TnmUenTi1--20" edge="1">
          <mxGeometry width="50" height="50" relative="1" as="geometry">
            <mxPoint x="420" y="539.5" as="sourcePoint" />
            <mxPoint x="480" y="539.5" as="targetPoint" />
          </mxGeometry>
        </mxCell>
        <mxCell id="Ox41XbjKJ6TnmUenTi1--22" value="" style="endArrow=classic;html=1;rounded=0;entryX=0.1;entryY=0.2;entryDx=0;entryDy=0;entryPerimeter=0;" parent="1" source="Ox41XbjKJ6TnmUenTi1--1" target="Ox41XbjKJ6TnmUenTi1--23" edge="1">
          <mxGeometry width="50" height="50" relative="1" as="geometry">
            <mxPoint x="60" y="335" as="sourcePoint" />
            <mxPoint x="218" y="585" as="targetPoint" />
          </mxGeometry>
        </mxCell>
        <mxCell id="Ox41XbjKJ6TnmUenTi1--23" value="&lt;font style=&quot;font-size: 14px;&quot;&gt;Affichage des séances&lt;/font&gt;" style="ellipse;whiteSpace=wrap;html=1;fillColor=#C3ABD0;" parent="1" vertex="1">
          <mxGeometry x="240" y="590" width="180" height="100" as="geometry" />
        </mxCell>
        <mxCell id="Ox41XbjKJ6TnmUenTi1--24" value="&lt;font style=&quot;font-size: 14px;&quot;&gt;Recherche des séances par date&lt;br&gt;&lt;/font&gt;" style="ellipse;whiteSpace=wrap;html=1;fillColor=#C3ABD0;" parent="1" vertex="1">
          <mxGeometry x="480" y="590" width="180" height="100" as="geometry" />
        </mxCell>
        <mxCell id="Ox41XbjKJ6TnmUenTi1--25" value="&lt;font style=&quot;font-size: 14px;&quot;&gt;Ajout d&#39;une séance au panier&lt;/font&gt;" style="ellipse;whiteSpace=wrap;html=1;fillColor=#C3ABD0;" parent="1" vertex="1">
          <mxGeometry x="480" y="710" width="180" height="100" as="geometry" />
        </mxCell>
        <mxCell id="Ox41XbjKJ6TnmUenTi1--26" value="" style="endArrow=classic;html=1;rounded=0;entryX=0;entryY=0.5;entryDx=0;entryDy=0;exitX=1;exitY=0.5;exitDx=0;exitDy=0;" parent="1" source="Ox41XbjKJ6TnmUenTi1--23" target="Ox41XbjKJ6TnmUenTi1--24" edge="1">
          <mxGeometry width="50" height="50" relative="1" as="geometry">
            <mxPoint x="430" y="530" as="sourcePoint" />
            <mxPoint x="490" y="530" as="targetPoint" />
          </mxGeometry>
        </mxCell>
        <mxCell id="Ox41XbjKJ6TnmUenTi1--27" value="" style="endArrow=classic;html=1;rounded=0;entryX=0.05;entryY=0.21;entryDx=0;entryDy=0;exitX=1;exitY=0.5;exitDx=0;exitDy=0;entryPerimeter=0;" parent="1" source="Ox41XbjKJ6TnmUenTi1--23" target="Ox41XbjKJ6TnmUenTi1--25" edge="1">
          <mxGeometry width="50" height="50" relative="1" as="geometry">
            <mxPoint x="440" y="540" as="sourcePoint" />
            <mxPoint x="500" y="540" as="targetPoint" />
          </mxGeometry>
        </mxCell>
        <mxCell id="HJdiH7LTMcJurbzftqVI-3" value="&lt;font style=&quot;font-size: 14px;&quot;&gt;Passer commande&lt;/font&gt;" style="ellipse;whiteSpace=wrap;html=1;fillColor=#FFFF66;" vertex="1" parent="1">
          <mxGeometry x="550" y="210" width="180" height="100" as="geometry" />
        </mxCell>
        <mxCell id="HJdiH7LTMcJurbzftqVI-4" value="" style="endArrow=classic;html=1;rounded=0;entryX=0;entryY=0.5;entryDx=0;entryDy=0;exitX=1;exitY=0.5;exitDx=0;exitDy=0;" edge="1" parent="1" source="Ox41XbjKJ6TnmUenTi1--9" target="HJdiH7LTMcJurbzftqVI-3">
          <mxGeometry width="50" height="50" relative="1" as="geometry">
            <mxPoint x="430" y="290" as="sourcePoint" />
            <mxPoint x="560" y="140" as="targetPoint" />
          </mxGeometry>
        </mxCell>
      </root>
    </mxGraphModel>
  </diagram>
</mxfile>
